<svg width="240" height="70" viewBox="0 0 240 70" fill="none" xmlns="http://www.w3.org/2000/svg">
<path d="M238.667 61.3373C238.667 65.0322 235.612 68.0251 231.833 68.0251H8.17723C4.39998 68.0251 1.33398 65.0322 1.33398 61.3373V8.0046C1.33398 4.31149 4.39998 1.30811 8.17723 1.30811H231.831C235.612 1.30811 238.666 4.31149 238.666 8.0046L238.667 61.3373Z" fill="black"/>
<path d="M231.111 1.38899C235.227 1.38899 238.576 4.65416 238.576 8.66683V60.6668C238.576 64.6795 235.227 67.9447 231.111 67.9447H8.88889C4.77333 67.9447 1.42444 64.6795 1.42444 60.6668V8.66683C1.42444 4.65416 4.77333 1.38899 8.88889 1.38899H231.111ZM231.111 0.000160217H8.88889C4.00222 0.000160217 0 3.90233 0 8.66683V60.6668C0 65.4313 4.00222 69.3335 8.88889 69.3335H231.111C235.998 69.3335 240 65.4313 240 60.6668V8.66683C240 3.90233 235.998 0.000160217 231.111 0.000160217Z" fill="#A6A6A6"/>
<path d="M53.56 34.2925C53.5084 28.706 58.2515 25.9881 58.4684 25.8616C55.7822 22.043 51.6186 21.5213 50.1555 21.4797C46.6586 21.1209 43.2666 23.5198 41.4853 23.5198C39.6684 23.5198 36.9253 21.5144 33.9688 21.5733C30.1644 21.6305 26.6053 23.7781 24.6533 27.113C20.6248 33.9129 23.6293 43.9056 27.4888 49.402C29.4195 52.0938 31.6755 55.0994 34.6284 54.9937C37.5173 54.8776 38.5964 53.198 42.0826 53.198C45.5368 53.198 46.5502 54.9937 49.5617 54.9261C52.6622 54.8776 54.6142 52.2221 56.4773 49.506C58.7084 46.4206 59.6044 43.3821 59.64 43.2261C59.5671 43.2018 53.6186 40.9884 53.56 34.2925Z" fill="white"/>
<path d="M47.8711 17.864C49.4248 15.9694 50.488 13.392 50.1928 10.7764C47.944 10.8734 45.1315 12.293 43.512 14.146C42.0791 15.7788 40.7991 18.455 41.1297 20.9718C43.656 21.1556 46.2497 19.729 47.8711 17.864Z" fill="white"/>
<path d="M87.2003 17.3487C87.2003 19.3889 86.5727 20.9246 85.3194 21.9559C84.1585 22.9075 82.5087 23.3842 80.3718 23.3842C79.3123 23.3842 78.4056 23.3391 77.6465 23.249V12.1019C78.6367 11.9459 79.7034 11.8662 80.8554 11.8662C82.8909 11.8662 84.4252 12.2978 85.4598 13.161C86.6189 14.1369 87.2003 15.5322 87.2003 17.3487ZM85.2358 17.399C85.2358 16.0765 84.8767 15.0625 84.1585 14.3553C83.4403 13.6498 82.3914 13.2962 81.01 13.2962C80.4234 13.2962 79.9238 13.3343 79.5096 13.4141V21.8883C79.7389 21.923 80.1585 21.9386 80.7683 21.9386C82.194 21.9386 83.2945 21.5521 84.0696 20.779C84.8447 20.0059 85.2358 18.8793 85.2358 17.399Z" fill="white"/>
<path d="M97.6162 19.131C97.6162 20.3877 97.2482 21.4173 96.5122 22.225C95.7406 23.0553 94.7184 23.4696 93.442 23.4696C92.2118 23.4696 91.2322 23.0726 90.5015 22.2753C89.7727 21.4797 89.4082 20.4761 89.4082 19.2662C89.4082 18.0009 89.7833 16.9626 90.5371 16.1566C91.2909 15.3506 92.3042 14.9468 93.5807 14.9468C94.8109 14.9468 95.7993 15.3437 96.5478 16.1393C97.2589 16.9124 97.6162 17.9108 97.6162 19.131ZM95.6838 19.19C95.6838 18.436 95.5167 17.7894 95.1842 17.2504C94.7931 16.5986 94.2367 16.2728 93.5131 16.2728C92.7647 16.2728 92.1958 16.5986 91.8046 17.2504C91.4704 17.7894 91.3051 18.4464 91.3051 19.2229C91.3051 19.9769 91.4722 20.6234 91.8046 21.1625C92.2082 21.8142 92.77 22.1401 93.4953 22.1401C94.2064 22.1401 94.7646 21.809 95.1664 21.1452C95.5113 20.5957 95.6838 19.944 95.6838 19.19Z" fill="white"/>
<path d="M111.582 15.1128L108.959 23.2837H107.253L106.167 19.7356C105.891 18.8499 105.667 17.9693 105.493 17.0957H105.459C105.297 17.9936 105.073 18.8724 104.785 19.7356L103.631 23.2837H101.905L99.4395 15.1128H101.354L102.302 18.9972C102.531 19.9159 102.719 20.7912 102.871 21.6197H102.904C103.043 20.9368 103.272 20.0667 103.596 19.0145L104.785 15.1145H106.303L107.443 18.9313C107.719 19.8621 107.943 20.7583 108.115 21.6215H108.167C108.293 20.7808 108.483 19.8847 108.735 18.9313L109.752 15.1145H111.582V15.1128Z" fill="white"/>
<path d="M121.24 23.2839H119.377V18.6039C119.377 17.1618 118.815 16.4407 117.688 16.4407C117.135 16.4407 116.689 16.6383 116.343 17.0353C115.999 17.4322 115.825 17.9002 115.825 18.4358V23.2822H113.962V17.4478C113.962 16.7302 113.939 15.9519 113.895 15.1095H115.532L115.619 16.387H115.671C115.887 15.9901 116.211 15.6625 116.636 15.4007C117.141 15.0957 117.706 14.9414 118.325 14.9414C119.107 14.9414 119.758 15.1875 120.275 15.6815C120.919 16.2865 121.24 17.1895 121.24 18.389V23.2839Z" fill="white"/>
<path d="M126.379 23.2839H124.518V11.3638H126.379V23.2839Z" fill="white"/>
<path d="M137.349 19.131C137.349 20.3877 136.981 21.4173 136.245 22.225C135.473 23.0553 134.449 23.4696 133.174 23.4696C131.942 23.4696 130.963 23.0726 130.234 22.2753C129.505 21.4797 129.141 20.4761 129.141 19.2662C129.141 18.0009 129.516 16.9626 130.27 16.1566C131.023 15.3506 132.037 14.9468 133.311 14.9468C134.543 14.9468 135.53 15.3437 136.28 16.1393C136.991 16.9124 137.349 17.9108 137.349 19.131ZM135.414 19.19C135.414 18.436 135.247 17.7894 134.915 17.2504C134.526 16.5986 133.967 16.2728 133.246 16.2728C132.495 16.2728 131.926 16.5986 131.537 17.2504C131.203 17.7894 131.038 18.4464 131.038 19.2229C131.038 19.9769 131.205 20.6234 131.537 21.1625C131.941 21.8142 132.502 22.1401 133.228 22.1401C133.939 22.1401 134.495 21.809 134.897 21.1452C135.244 20.5957 135.414 19.944 135.414 19.19Z" fill="white"/>
<path d="M146.364 23.2841H144.691L144.553 22.3429H144.501C143.929 23.0934 143.113 23.4696 142.053 23.4696C141.262 23.4696 140.622 23.2217 140.14 22.7294C139.703 22.2822 139.484 21.7258 139.484 21.0654C139.484 20.067 139.911 19.3061 140.77 18.7792C141.627 18.2522 142.832 17.994 144.384 18.0061V17.8536C144.384 16.7772 143.804 16.2398 142.643 16.2398C141.817 16.2398 141.088 16.4426 140.459 16.8448L140.08 15.6522C140.859 15.1825 141.82 14.9468 142.955 14.9468C145.145 14.9468 146.243 16.0734 146.243 18.3268V21.3358C146.243 22.1522 146.284 22.8022 146.364 23.2841ZM144.43 20.4761V19.216C142.375 19.1813 141.347 19.7308 141.347 20.8626C141.347 21.289 141.465 21.608 141.705 21.8212C141.945 22.0344 142.251 22.1401 142.615 22.1401C143.024 22.1401 143.406 22.0136 143.755 21.7622C144.105 21.5092 144.32 21.1885 144.4 20.795C144.419 20.7066 144.43 20.5992 144.43 20.4761Z" fill="white"/>
<path d="M156.951 23.2839H155.298L155.211 21.9718H155.159C154.631 22.9702 153.732 23.4694 152.468 23.4694C151.458 23.4694 150.617 23.0828 149.95 22.3098C149.284 21.5367 148.951 20.5331 148.951 19.3007C148.951 17.9782 149.312 16.907 150.037 16.0888C150.74 15.3262 151.6 14.9448 152.624 14.9448C153.749 14.9448 154.537 15.314 154.985 16.0542H155.02V11.3638H156.885V21.0826C156.885 21.8782 156.907 22.6114 156.951 23.2839ZM155.02 19.838V18.4756C155.02 18.2399 155.003 18.0492 154.969 17.9036C154.864 17.4668 154.638 17.0994 154.295 16.803C153.948 16.5066 153.531 16.3575 153.049 16.3575C152.354 16.3575 151.81 16.6262 151.41 17.1652C151.013 17.7043 150.812 18.3924 150.812 19.2331C150.812 20.0408 151.003 20.696 151.385 21.2004C151.788 21.7378 152.332 22.0064 153.013 22.0064C153.625 22.0064 154.114 21.7828 154.485 21.3339C154.844 20.9196 155.02 20.4204 155.02 19.838Z" fill="white"/>
<path d="M172.886 19.131C172.886 20.3877 172.518 21.4173 171.782 22.225C171.01 23.0553 169.99 23.4696 168.712 23.4696C167.483 23.4696 166.504 23.0726 165.771 22.2753C165.042 21.4797 164.678 20.4761 164.678 19.2662C164.678 18.0009 165.053 16.9626 165.807 16.1566C166.56 15.3506 167.574 14.9468 168.852 14.9468C170.08 14.9468 171.071 15.3437 171.817 16.1393C172.528 16.9124 172.886 17.9108 172.886 19.131ZM170.955 19.19C170.955 18.436 170.788 17.7894 170.456 17.2504C170.063 16.5986 169.508 16.2728 168.783 16.2728C168.036 16.2728 167.467 16.5986 167.074 17.2504C166.74 17.7894 166.575 18.4464 166.575 19.2229C166.575 19.9769 166.742 20.6234 167.074 21.1625C167.478 21.8142 168.04 22.1401 168.765 22.1401C169.476 22.1401 170.036 21.809 170.438 21.1452C170.781 20.5957 170.955 19.944 170.955 19.19Z" fill="white"/>
<path d="M182.903 23.2839H181.041V18.6039C181.041 17.1618 180.479 16.4407 179.351 16.4407C178.798 16.4407 178.351 16.6383 178.007 17.0353C177.662 17.4322 177.489 17.9002 177.489 18.4358V23.2822H175.624V17.4478C175.624 16.7302 175.603 15.9519 175.559 15.1095H177.194L177.281 16.387H177.333C177.551 15.9901 177.875 15.6625 178.298 15.4007C178.805 15.0957 179.368 14.9414 179.989 14.9414C180.769 14.9414 181.42 15.1875 181.937 15.6815C182.583 16.2865 182.903 17.1895 182.903 18.389V23.2839Z" fill="white"/>
<path d="M195.442 16.4737H193.39V20.4431C193.39 21.4519 193.755 21.9563 194.477 21.9563C194.811 21.9563 195.088 21.9285 195.307 21.8713L195.355 23.2493C194.987 23.3845 194.503 23.4521 193.908 23.4521C193.172 23.4521 192.599 23.2337 192.185 22.7969C191.769 22.3601 191.563 21.6252 191.563 20.5939V16.4737H190.338V15.1131H191.563V13.6155L193.389 13.0781V15.1113H195.44V16.4737H195.442Z" fill="white"/>
<path d="M205.306 23.2839H203.441V18.6386C203.441 17.1739 202.879 16.4407 201.754 16.4407C200.89 16.4407 200.299 16.8654 199.976 17.7147C199.921 17.8932 199.889 18.1116 199.889 18.3682V23.2822H198.027V11.3638H199.889V16.2882H199.924C200.511 15.392 201.352 14.9448 202.442 14.9448C203.213 14.9448 203.851 15.191 204.358 15.685C204.989 16.3003 205.306 17.2155 205.306 18.4254V23.2839Z" fill="white"/>
<path d="M215.48 18.8121C215.48 19.138 215.455 19.4118 215.411 19.6354H209.823C209.848 20.4432 210.115 21.0585 210.632 21.4849C211.105 21.8662 211.715 22.0569 212.461 22.0569C213.288 22.0569 214.042 21.9286 214.721 21.6704L215.012 22.9322C214.218 23.2685 213.283 23.4366 212.2 23.4366C210.902 23.4366 209.88 23.064 209.14 22.3186C208.397 21.5733 208.029 20.5732 208.029 19.3182C208.029 18.0858 208.372 17.0597 209.064 16.2416C209.786 15.368 210.762 14.9312 211.994 14.9312C213.199 14.9312 214.115 15.368 214.733 16.2416C215.233 16.9349 215.48 17.7929 215.48 18.8121ZM213.702 18.3424C213.716 17.8033 213.594 17.3388 213.341 16.947C213.018 16.4426 212.525 16.1896 211.859 16.1896C211.251 16.1896 210.755 16.4357 210.376 16.9297C210.067 17.3232 209.884 17.7929 209.823 18.3424H213.702Z" fill="white"/>
<path d="M95.3698 54.6068H91.3325L89.1209 47.8312H81.4338L79.3271 54.6068H75.3965L83.0125 31.5396H87.7165L95.3698 54.6068ZM88.4543 44.9885L86.4543 38.9652C86.2427 38.3498 85.8463 36.9008 85.2614 34.6197H85.1903C84.9574 35.6008 84.5823 37.0498 84.0667 38.9652L82.1023 44.9885H88.4543Z" fill="white"/>
<path d="M114.956 46.0858C114.956 48.9146 114.172 51.1506 112.604 52.7921C111.199 54.2533 109.455 54.983 107.374 54.983C105.126 54.983 103.512 54.1961 102.529 52.6222H102.458V61.3842H98.6678V43.4494C98.6678 41.671 98.6198 39.8458 98.5273 37.9738H101.861L102.072 40.6102H102.143C103.407 38.6238 105.326 37.6323 107.9 37.6323C109.912 37.6323 111.592 38.4071 112.936 39.9585C114.284 41.5115 114.956 43.5534 114.956 46.0858ZM111.094 46.221C111.094 44.6021 110.721 43.2674 109.971 42.217C109.151 41.1215 108.051 40.5738 106.671 40.5738C105.736 40.5738 104.886 40.8789 104.127 41.4803C103.366 42.087 102.869 42.8791 102.636 43.8602C102.518 44.3178 102.46 44.6922 102.46 44.9869V47.7602C102.46 48.9701 102.84 49.991 103.601 50.8247C104.362 51.6585 105.35 52.0745 106.566 52.0745C107.994 52.0745 109.105 51.5371 109.9 50.4659C110.696 49.393 111.094 47.9786 111.094 46.221Z" fill="white"/>
<path d="M134.577 46.0858C134.577 48.9146 133.793 51.1506 132.223 52.7921C130.821 54.2533 129.077 54.983 126.995 54.983C124.748 54.983 123.134 54.1961 122.152 52.6222H122.081V61.3842H118.291V43.4494C118.291 41.671 118.243 39.8458 118.15 37.9738H121.484L121.695 40.6102H121.766C123.029 38.6238 124.947 37.6323 127.523 37.6323C129.534 37.6323 131.214 38.4071 132.561 39.9585C133.903 41.5115 134.577 43.5534 134.577 46.0858ZM130.716 46.221C130.716 44.6021 130.341 43.2674 129.59 42.217C128.771 41.1215 127.674 40.5738 126.293 40.5738C125.356 40.5738 124.508 40.8789 123.747 41.4803C122.986 42.087 122.49 42.8791 122.257 43.8602C122.141 44.3178 122.081 44.6922 122.081 44.9869V47.7602C122.081 48.9701 122.462 49.991 123.219 50.8247C123.98 51.6567 124.968 52.0745 126.188 52.0745C127.615 52.0745 128.726 51.5371 129.521 50.4659C130.318 49.393 130.716 47.9786 130.716 46.221Z" fill="white"/>
<path d="M156.515 48.1381C156.515 50.1002 155.817 51.6966 154.414 52.929C152.873 54.2758 150.727 54.9483 147.969 54.9483C145.424 54.9483 143.383 54.4699 141.838 53.5114L142.716 50.4313C144.38 51.4123 146.206 51.9046 148.195 51.9046C149.623 51.9046 150.734 51.5891 151.532 50.9617C152.327 50.3342 152.723 49.4918 152.723 48.4414C152.723 47.5054 152.396 46.7167 151.74 46.0771C151.088 45.4375 149.998 44.843 148.476 44.2935C144.334 42.7873 142.265 40.5807 142.265 37.6791C142.265 35.7829 142.99 34.2281 144.442 33.0182C145.889 31.8066 147.82 31.2017 150.234 31.2017C152.387 31.2017 154.176 31.5674 155.603 32.2971L154.656 35.3097C153.322 34.6025 151.815 34.2489 150.128 34.2489C148.794 34.2489 147.753 34.5695 147.006 35.2074C146.375 35.7777 146.058 36.4727 146.058 37.2961C146.058 38.2078 146.419 38.9618 147.145 39.5546C147.776 40.1023 148.922 40.6951 150.586 41.3347C152.622 42.1338 154.117 43.0681 155.079 44.1393C156.037 45.207 156.515 46.5434 156.515 48.1381Z" fill="white"/>
<path d="M169.046 40.7473H164.868V48.8229C164.868 50.8769 165.604 51.9031 167.079 51.9031C167.757 51.9031 168.318 51.8459 168.763 51.7315L168.868 54.5377C168.121 54.8099 167.138 54.9468 165.92 54.9468C164.423 54.9468 163.254 54.5013 162.409 53.6121C161.568 52.7212 161.145 51.2271 161.145 49.128V40.7439H158.656V37.9705H161.145V34.9251L164.868 33.8296V37.9705H169.046V40.7473Z" fill="white"/>
<path d="M187.897 46.1536C187.897 48.7103 187.147 50.8093 185.65 52.4508C184.08 54.1408 181.996 54.9832 179.399 54.9832C176.896 54.9832 174.903 54.1737 173.417 52.5548C171.931 50.9359 171.188 48.8923 171.188 46.4292C171.188 43.8517 171.952 41.7405 173.486 40.0991C175.017 38.4559 177.083 37.6343 179.68 37.6343C182.183 37.6343 184.197 38.4437 185.717 40.0644C187.171 41.6365 187.897 43.6663 187.897 46.1536ZM183.964 46.2732C183.964 44.7392 183.628 43.4236 182.947 42.3264C182.153 40.9987 181.017 40.3365 179.545 40.3365C178.021 40.3365 176.864 41.0004 176.069 42.3264C175.388 43.4253 175.052 44.7617 175.052 46.3425C175.052 47.8765 175.388 49.1921 176.069 50.2876C176.889 51.6153 178.034 52.2775 179.511 52.2775C180.958 52.2775 182.094 51.6015 182.914 50.2529C183.612 49.1349 183.964 47.8055 183.964 46.2732Z" fill="white"/>
<path d="M200.217 41.2238C199.842 41.1562 199.442 41.1215 199.022 41.1215C197.689 41.1215 196.658 41.6121 195.933 42.5949C195.301 43.4615 194.985 44.557 194.985 45.8795V54.6069H191.197L191.232 43.2119C191.232 41.2949 191.184 39.5494 191.09 37.9755H194.391L194.53 41.1579H194.635C195.035 40.0642 195.666 39.1837 196.53 38.5233C197.374 37.9287 198.286 37.6323 199.269 37.6323C199.62 37.6323 199.936 37.6566 200.217 37.6999V41.2238Z" fill="white"/>
<path d="M217.167 45.5033C217.167 46.1655 217.122 46.7236 217.028 47.1795H205.657C205.702 48.8227 206.251 50.0793 207.307 50.946C208.265 51.7208 209.505 52.1091 211.026 52.1091C212.71 52.1091 214.246 51.8473 215.627 51.3221L216.221 53.8875C214.607 54.5739 212.701 54.9153 210.502 54.9153C207.857 54.9153 205.78 54.1561 204.269 52.6395C202.761 51.1228 202.006 49.0861 202.006 46.5312C202.006 44.0231 202.708 41.9344 204.114 40.2687C205.586 38.4903 207.576 37.6011 210.079 37.6011C212.537 37.6011 214.399 38.4903 215.663 40.2687C216.664 41.6813 217.167 43.4285 217.167 45.5033ZM213.553 44.5448C213.577 43.4493 213.33 42.5029 212.817 41.7039C212.161 40.676 211.153 40.1629 209.796 40.1629C208.557 40.1629 207.549 40.6639 206.779 41.6692C206.148 42.4683 205.773 43.4268 205.657 44.5431H213.553V44.5448Z" fill="white"/>
</svg>
