<svg width="240" height="70" viewBox="0 0 240 70" fill="none" xmlns="http://www.w3.org/2000/svg">
<path d="M231.111 69.3335H8.88889C4.00222 69.3335 0 65.4313 0 60.6668V8.66684C0 3.90234 4.00222 0.000171661 8.88889 0.000171661H231.111C235.998 0.000171661 240 3.90234 240 8.66684V60.6668C240 65.4313 235.998 69.3335 231.111 69.3335Z" fill="black"/>
<path d="M231.111 1.389C235.227 1.389 238.576 4.65417 238.576 8.66684V60.6668C238.576 64.6795 235.227 67.9447 231.111 67.9447H8.88889C4.77333 67.9447 1.42444 64.6795 1.42444 60.6668V8.66684C1.42444 4.65417 4.77333 1.389 8.88889 1.389H231.111ZM231.111 0.000171661H8.88889C4.00222 0.000171661 0 3.90234 0 8.66684V60.6668C0 65.4313 4.00222 69.3335 8.88889 69.3335H231.111C235.998 69.3335 240 65.4313 240 60.6668V8.66684C240 3.90234 235.998 0.000171661 231.111 0.000171661Z" fill="#A6A6A6"/>
<path d="M18.551 13.0674C18.0288 13.6004 17.7266 14.4303 17.7266 15.5049V53.8376C17.7266 54.9123 18.0288 55.7421 18.551 56.2751L18.6799 56.3921L40.711 34.9204V34.4134L18.6799 12.9418L18.551 13.0674Z" fill="url(#paint0_linear_304_13751)"/>
<path d="M48.0465 42.0811L40.7109 34.9202V34.4132L48.0554 27.2524L48.2198 27.3456L56.9176 32.1707C59.3998 33.5401 59.3998 35.7934 56.9176 37.1714L48.2198 41.9879L48.0465 42.0811Z" fill="url(#paint1_linear_304_13751)"/>
<path d="M48.2197 41.988L40.7108 34.6668L18.5508 56.275C19.3752 57.12 20.7197 57.2218 22.2486 56.3768L48.2197 41.988Z" fill="url(#paint2_linear_304_13751)"/>
<path d="M48.2197 27.3458L22.2486 12.957C20.7197 12.1207 19.3752 12.2225 18.5508 13.0675L40.7108 34.667L48.2197 27.3458Z" fill="url(#paint3_linear_304_13751)"/>
<path d="M84.2978 17.7559C84.2978 19.2032 83.8534 20.3624 82.9778 21.2269C81.9712 22.2517 80.6601 22.7674 79.0534 22.7674C77.5178 22.7674 76.2067 22.2431 75.1312 21.2096C74.0534 20.1609 73.5156 18.8739 73.5156 17.3334C73.5156 15.7929 74.0534 14.5059 75.1312 13.4659C76.2067 12.4237 77.5178 11.8994 79.0534 11.8994C79.8178 11.8994 80.5467 12.0532 81.2423 12.3392C81.9356 12.6274 82.5001 13.0174 82.909 13.4984L81.9801 14.4127C81.2667 13.5916 80.2956 13.1864 79.0534 13.1864C77.9334 13.1864 76.9623 13.5677 76.1378 14.3369C75.3223 15.1082 74.9134 16.1071 74.9134 17.3334C74.9134 18.5597 75.3223 19.5672 76.1378 20.3386C76.9623 21.0991 77.9334 21.4891 79.0534 21.4891C80.2423 21.4891 81.2423 21.0991 82.0312 20.3299C82.5512 19.8207 82.8467 19.1187 82.9245 18.2217H79.0534V16.9694H84.2178C84.2801 17.2402 84.2978 17.5024 84.2978 17.7559Z" fill="white" stroke="white" stroke-width="0.16" stroke-miterlimit="10"/>
<path d="M92.492 13.4139H87.6409V16.7072H92.0143V17.9595H87.6409V21.2529H92.492V22.529H86.2676V12.1377H92.492V13.4139Z" fill="white" stroke="white" stroke-width="0.16" stroke-miterlimit="10"/>
<path d="M98.2727 22.529H96.8994V13.4139H93.9238V12.1377H101.25V13.4139H98.2727V22.529Z" fill="white" stroke="white" stroke-width="0.16" stroke-miterlimit="10"/>
<path d="M106.553 22.529V12.1377H107.924V22.529H106.553Z" fill="white" stroke="white" stroke-width="0.16" stroke-miterlimit="10"/>
<path d="M114.003 22.529H112.641V13.4139H109.654V12.1377H116.99V13.4139H114.003V22.529Z" fill="white" stroke="white" stroke-width="0.16" stroke-miterlimit="10"/>
<path d="M130.86 21.1922C129.809 22.2431 128.507 22.7674 126.953 22.7674C125.391 22.7674 124.089 22.2431 123.038 21.1922C121.989 20.1436 121.467 18.8566 121.467 17.3334C121.467 15.8102 121.989 14.5232 123.038 13.4746C124.089 12.4237 125.391 11.8994 126.953 11.8994C128.498 11.8994 129.8 12.4237 130.851 13.4832C131.909 14.5406 132.431 15.8189 132.431 17.3334C132.431 18.8566 131.909 20.1436 130.86 21.1922ZM124.053 20.3212C124.845 21.0991 125.807 21.4891 126.953 21.4891C128.091 21.4891 129.062 21.0991 129.845 20.3212C130.633 19.5434 131.033 18.5446 131.033 17.3334C131.033 16.1222 130.633 15.1234 129.845 14.3456C129.062 13.5677 128.091 13.1777 126.953 13.1777C125.807 13.1777 124.845 13.5677 124.053 14.3456C123.265 15.1234 122.865 16.1222 122.865 17.3334C122.865 18.5446 123.265 19.5434 124.053 20.3212Z" fill="white" stroke="white" stroke-width="0.16" stroke-miterlimit="10"/>
<path d="M134.357 22.529V12.1377H136.024L141.206 20.2194H141.266L141.206 18.2217V12.1377H142.577V22.529H141.146L135.72 14.0487H135.66L135.72 16.055V22.529H134.357Z" fill="white" stroke="white" stroke-width="0.16" stroke-miterlimit="10"/>
<path d="M121.13 37.7045C116.954 37.7045 113.543 40.8029 113.543 45.0777C113.543 49.3179 116.954 52.4487 121.13 52.4487C125.314 52.4487 128.725 49.3179 128.725 45.0777C128.725 40.8029 125.314 37.7045 121.13 37.7045ZM121.13 49.5454C118.839 49.5454 116.868 47.7015 116.868 45.0777C116.868 42.4192 118.839 40.6079 121.13 40.6079C123.421 40.6079 125.401 42.4192 125.401 45.0777C125.401 47.7015 123.421 49.5454 121.13 49.5454ZM104.576 37.7045C100.392 37.7045 96.9898 40.8029 96.9898 45.0777C96.9898 49.3179 100.392 52.4487 104.576 52.4487C108.759 52.4487 112.163 49.3179 112.163 45.0777C112.163 40.8029 108.759 37.7045 104.576 37.7045ZM104.576 49.5454C102.283 49.5454 100.305 47.7015 100.305 45.0777C100.305 42.4192 102.283 40.6079 104.576 40.6079C106.868 40.6079 108.839 42.4192 108.839 45.0777C108.839 47.7015 106.868 49.5454 104.576 49.5454ZM84.8787 39.9644V43.0974H92.552C92.3276 44.848 91.7276 46.135 90.8076 47.032C89.6876 48.1154 87.9432 49.3179 84.8787 49.3179C80.1565 49.3179 76.4587 45.602 76.4587 40.9979C76.4587 36.3937 80.1565 32.6779 84.8787 32.6779C87.432 32.6779 89.2898 33.6507 90.6609 34.9117L92.9254 32.7039C91.0076 30.9185 88.4565 29.547 84.8787 29.547C78.4032 29.547 72.9609 34.6842 72.9609 40.9979C72.9609 47.3115 78.4032 52.4487 84.8787 52.4487C88.3787 52.4487 91.0076 51.3307 93.0743 49.2334C95.192 47.1685 95.852 44.2652 95.852 41.9209C95.852 41.1929 95.7898 40.5234 95.6787 39.9644H84.8787ZM165.425 42.3932C164.801 40.7444 162.874 37.7045 158.95 37.7045C155.061 37.7045 151.823 40.6924 151.823 45.0777C151.823 49.2074 155.028 52.4487 159.323 52.4487C162.796 52.4487 164.801 50.3839 165.625 49.1814L163.048 47.5065C162.188 48.7329 161.016 49.5454 159.323 49.5454C157.641 49.5454 156.434 48.7935 155.661 47.3115L165.774 43.2317L165.425 42.3932ZM155.114 44.848C155.028 42.0054 157.379 40.5494 159.063 40.5494C160.383 40.5494 161.503 41.1929 161.876 42.1137L155.114 44.848ZM146.894 52.0002H150.219V30.3335H146.894V52.0002ZM141.45 39.3469H141.339C140.592 38.4845 139.168 37.7045 137.363 37.7045C133.576 37.7045 130.114 40.9459 130.114 45.1015C130.114 49.2334 133.576 52.4487 137.363 52.4487C139.168 52.4487 140.592 51.6622 141.339 50.7739H141.45V51.8312C141.45 54.65 139.905 56.1645 137.414 56.1645C135.383 56.1645 134.123 54.7345 133.603 53.532L130.712 54.7085C131.545 56.6629 133.752 59.0679 137.414 59.0679C141.312 59.0679 144.601 56.8319 144.601 51.3914V38.153H141.45V39.3469ZM137.648 49.5454C135.356 49.5454 133.439 47.6755 133.439 45.1015C133.439 42.5037 135.356 40.6079 137.648 40.6079C139.905 40.6079 141.685 42.5037 141.685 45.1015C141.685 47.6755 139.905 49.5454 137.648 49.5454ZM180.99 30.3335H173.039V52.0002H176.354V43.7907H180.99C184.672 43.7907 188.283 41.1929 188.283 37.061C188.283 32.9314 184.663 30.3335 180.99 30.3335ZM181.076 40.7769H176.354V33.3474H181.076C183.552 33.3474 184.965 35.3515 184.965 37.061C184.965 38.738 183.552 40.7769 181.076 40.7769ZM201.572 37.6634C199.176 37.6634 196.685 38.6947 195.661 40.9805L198.603 42.183C199.236 40.9805 200.401 40.5905 201.632 40.5905C203.352 40.5905 205.096 41.598 205.123 43.3769V43.6044C204.523 43.2664 203.239 42.7659 201.659 42.7659C198.49 42.7659 195.261 44.4667 195.261 47.6409C195.261 50.5442 197.856 52.414 200.774 52.414C203.005 52.414 204.236 51.4325 205.01 50.2907H205.123V51.9655H208.325V43.6542C208.325 39.8127 205.383 37.6634 201.572 37.6634ZM201.172 49.5367C200.088 49.5367 198.576 49.0124 198.576 47.7015C198.576 46.0245 200.461 45.381 202.092 45.381C203.552 45.381 204.236 45.6952 205.123 46.109C204.863 48.1154 203.092 49.5367 201.172 49.5367ZM219.992 38.1379L216.181 47.5304H216.068L212.128 38.1379H208.552L214.472 51.2635L211.094 58.5674H214.559L223.681 38.1379H219.992ZM190.105 52.0002H193.43V30.3335H190.105V52.0002Z" fill="white"/>
<defs>
<linearGradient id="paint0_linear_304_13751" x1="38.7549" y1="54.2368" x2="9.67474" y2="24.411" gradientUnits="userSpaceOnUse">
<stop stop-color="#00A0FF"/>
<stop offset="0.0066" stop-color="#00A1FF"/>
<stop offset="0.2601" stop-color="#00BEFF"/>
<stop offset="0.5122" stop-color="#00D2FF"/>
<stop offset="0.7604" stop-color="#00DFFF"/>
<stop offset="1" stop-color="#00E3FF"/>
</linearGradient>
<linearGradient id="paint1_linear_304_13751" x1="60.1499" y1="34.6643" x2="17.1332" y2="34.6643" gradientUnits="userSpaceOnUse">
<stop stop-color="#FFE000"/>
<stop offset="0.4087" stop-color="#FFBD00"/>
<stop offset="0.7754" stop-color="#FFA500"/>
<stop offset="1" stop-color="#FF9C00"/>
</linearGradient>
<linearGradient id="paint2_linear_304_13751" x1="44.1366" y1="30.6869" x2="4.70149" y2="-9.75934" gradientUnits="userSpaceOnUse">
<stop stop-color="#FF3A44"/>
<stop offset="1" stop-color="#C31162"/>
</linearGradient>
<linearGradient id="paint3_linear_304_13751" x1="12.9726" y1="69.0283" x2="30.5822" y2="50.9674" gradientUnits="userSpaceOnUse">
<stop stop-color="#32A071"/>
<stop offset="0.0685" stop-color="#2DA771"/>
<stop offset="0.4762" stop-color="#15CF74"/>
<stop offset="0.8009" stop-color="#06E775"/>
<stop offset="1" stop-color="#00F076"/>
</linearGradient>
</defs>
</svg>
